<svg xmlns="http://www.w3.org/2000/svg" xmlns:xlink="http://www.w3.org/1999/xlink" width="500" zoomAndPan="magnify" viewBox="0 0 375 260.999984" height="348" preserveAspectRatio="xMidYMid meet" version="1.0"><defs><clipPath id="96c3580a71"><path d="M 0.0664062 65 L 98 65 L 98 181 L 0.0664062 181 Z M 0.0664062 65 " clip-rule="nonzero"/></clipPath></defs><path fill="#3e517a" d="M 239.269531 0.046875 L 218.988281 4.632812 L 326.132812 28.574219 L 239.664062 54.003906 L 130.824219 24.554688 L 106.398438 30.074219 L 239.269531 67.363281 L 372.925781 30.25 L 239.269531 0.046875 " fill-opacity="1" fill-rule="nonzero"/><path fill="#3e517a" d="M 355.664062 52.375 L 355.664062 175.304688 L 267.015625 219.3125 L 267.015625 76.996094 L 247.617188 82.382812 L 247.617188 261.027344 L 375.058594 187.476562 L 375.058594 46.988281 L 355.664062 52.375 " fill-opacity="1" fill-rule="nonzero"/><path fill="#3e517a" d="M 103.476562 46.589844 L 103.476562 79.378906 L 118.296875 79.378906 C 122.589844 79.378906 126.066406 82.855469 126.066406 87.144531 C 126.066406 91.4375 122.589844 94.914062 118.296875 94.914062 L 46.390625 94.914062 C 43.332031 94.914062 40.851562 97.394531 40.851562 100.453125 C 40.851562 103.511719 43.332031 105.988281 46.390625 105.988281 L 149.140625 105.988281 C 153.433594 105.988281 156.914062 109.46875 156.914062 113.757812 C 156.914062 118.046875 153.433594 121.527344 149.140625 121.527344 L 80.375 121.527344 C 77.316406 121.527344 74.832031 124.007812 74.832031 127.0625 C 74.832031 130.121094 77.316406 132.601562 80.375 132.601562 L 133.070312 132.601562 C 137.359375 132.601562 140.835938 136.082031 140.835938 140.371094 C 140.835938 144.660156 137.359375 148.140625 133.070312 148.140625 L 93.328125 148.140625 C 90.273438 148.140625 87.792969 150.621094 87.792969 153.675781 C 87.792969 156.734375 90.273438 159.214844 93.328125 159.214844 L 165.347656 159.214844 C 169.640625 159.214844 173.117188 162.695312 173.117188 166.984375 C 173.117188 171.273438 169.640625 174.753906 165.347656 174.753906 L 103.476562 174.753906 L 103.476562 187.476562 L 230.921875 261.03125 L 230.921875 82.359375 L 103.476562 46.589844 " fill-opacity="1" fill-rule="nonzero"/><g clip-path="url(#96c3580a71)"><path fill="#3e517a" d="M 79.015625 169.988281 L 33.53125 169.988281 C 30.574219 169.988281 28.175781 172.386719 28.175781 175.34375 C 28.175781 178.304688 30.574219 180.703125 33.53125 180.703125 L 79.015625 180.703125 C 81.976562 180.703125 84.375 178.304688 84.375 175.34375 C 84.375 172.386719 81.976562 169.988281 79.015625 169.988281 Z M 56.273438 130.925781 C 56.273438 127.96875 53.875 125.566406 50.914062 125.566406 L 5.433594 125.566406 C 2.472656 125.566406 0.0742188 127.96875 0.0742188 130.925781 C 0.0742188 133.882812 2.472656 136.28125 5.433594 136.28125 L 50.914062 136.28125 C 53.875 136.28125 56.273438 133.882812 56.273438 130.925781 Z M 91.695312 65.46875 L 46.210938 65.46875 C 43.25 65.46875 40.851562 67.867188 40.851562 70.824219 C 40.851562 73.78125 43.25 76.179688 46.210938 76.179688 L 91.695312 76.179688 C 94.652344 76.179688 97.050781 73.78125 97.050781 70.824219 C 97.050781 67.867188 94.652344 65.46875 91.695312 65.46875 " fill-opacity="1" fill-rule="nonzero"/></g></svg>