<svg xmlns="http://www.w3.org/2000/svg" viewBox="0 0 500 500"><defs><style>.cls-1{fill:#ffb494;}.cls-2{fill:#ffded2;}.cls-3,.cls-7{fill:#fe7f2d;}.cls-4{fill:#e29e86;}.cls-5{fill:#f5f5f5;}.cls-6{fill:#fff;}.cls-7{font-size:21.25px;}.cls-7,.cls-8{font-family:Impact;}.cls-8{font-size:12px;fill:#6e6e70;letter-spacing:0.2em;}</style></defs><g id="Layer_2" data-name="Layer 2"><path class="cls-1" d="M481.72,297.2H20.8S48.87,487.69,251.26,488.54,481.72,297.2,481.72,297.2Z"/><path class="cls-2" d="M481.72,297.2s8.5-23.81,0-74S429,16.57,256.36,15.72,18.25,160.28,17.4,229.17s3.4,68,3.4,68Z"/><path class="cls-3" d="M250,.26C112.07.26.26,112.07.26,250S112.07,499.74,250,499.74,499.74,387.93,499.74,250,387.93.26,250,.26Zm0,473C126.71,473.24,26.76,373.29,26.76,250S126.71,26.76,250,26.76,473.24,126.71,473.24,250,373.29,473.24,250,473.24Z"/><ellipse class="cls-4" cx="249.99" cy="368.48" rx="155.72" ry="10.02"/><rect class="cls-5" x="123.87" y="174.41" width="84.67" height="190.87"/><rect class="cls-6" x="208.54" y="174.41" width="171.59" height="190.87"/><rect class="cls-3" x="284.5" y="174.41" width="26.83" height="30.24"/><text class="cls-7" transform="translate(239.76 285.27) scale(1.48 1)">BURGEON</text><text class="cls-8" transform="translate(272.08 298)">SYSTEM</text></g></svg>